<svg width="420" height="82" xmlns="http://www.w3.org/2000/svg" xml:space="preserve" enable-background="new 0 0 420 82" version="1.1">

 <g>
  <title>Layer 1</title>
  <polygon id="svg_1" points="58.1,12.2 40.5,37 40.5,37 40.5,72.6 75.6,52.4 75.6,18.5 " fill="#944031"/>
  <path id="svg_2" d="m58.1,12.2l-2.6,-0.8l-17.3,24.3l-20.8,-12.1l0,0c0,0 -1.8,-0.7 -1.8,1.5c0,2 -0.4,3.5 1.8,4.8l5,2.9c0.2,0.1 0.3,0.4 0.2,0.6c-0.1,0.1 -0.2,0.2 -0.4,0.2c-0.1,0 -0.1,0 -0.2,-0.1l-2,-1.1l-11.3,-6.4c0,0 -1.8,-0.8 -1.8,1.6c0,2.1 -0.4,3.6 1.8,4.9c3.1,1.7 7.9,4.5 11.4,6.4c1.4,0.8 2.4,1.4 2.4,1.4c0.2,0.1 0.3,0.4 0.2,0.6c-0.1,0.1 -0.2,0.2 -0.4,0.2c-0.1,0 -0.1,0 -0.2,-0.1l-14.9,-8.5l0,0c0,0 -1.8,-0.8 -1.8,1.6c0,2.1 -0.4,3.6 1.8,4.9c5.1,2.9 5.1,2.9 15.2,8.7c0.2,0.1 0.3,0.4 0.2,0.6c-0.1,0.1 -0.2,0.2 -0.4,0.2c-0.1,0 -0.1,0 -0.2,-0.1l-14,-8.1c0,0 -1.8,-0.8 -1.8,1.6c0,2.1 -0.4,3.6 1.8,4.9l0,0c8.3,4.7 7.6,4.3 14.5,8.3c0.2,0.1 0.3,0.4 0.2,0.6c-0.1,0.1 -0.2,0.2 -0.4,0.2c-0.1,0 -0.1,0 -0.2,-0.1l-10.9,-6.1l0,0c0,0 -1.8,-0.7 -1.8,1.5c0,2 -0.4,3.4 1.8,4.7l29.4,16.8l0,-35.7l17.5,-24.8z" fill="#7F1416" class="second-color"/>
  <g id="svg_3">
   <path id="svg_4" d="m97.4,47.3c0,0.5 -0.1,1 -0.4,1.5s-0.6,0.9 -1,1.3c-0.5,0.4 -1,0.7 -1.6,0.9s-1.4,0.3 -2.3,0.3c-0.9,0 -1.8,-0.1 -2.5,-0.3s-1.5,-0.4 -2.3,-0.8l0,-2.2l0.1,0c0.7,0.6 1.4,1 2.3,1.3s1.7,0.4 2.4,0.4c1.1,0 1.9,-0.2 2.5,-0.6s0.9,-0.9 0.9,-1.6c0,-0.6 -0.1,-1 -0.4,-1.3s-0.7,-0.5 -1.3,-0.6c-0.4,-0.1 -0.9,-0.2 -1.4,-0.3s-1.1,-0.2 -1.6,-0.3c-1.2,-0.2 -2,-0.7 -2.6,-1.3s-0.8,-1.4 -0.8,-2.3c0,-1.1 0.5,-2 1.4,-2.7s2.1,-1.1 3.5,-1.1c0.9,0 1.8,0.1 2.5,0.3s1.4,0.4 2,0.7l0,2.1l0,0c-0.5,-0.4 -1.2,-0.8 -2,-1.1s-1.6,-0.4 -2.5,-0.4c-0.9,0 -1.7,0.2 -2.2,0.6s-0.8,0.9 -0.8,1.5c0,0.5 0.1,1 0.4,1.3s0.8,0.5 1.5,0.7c0.4,0.1 0.9,0.2 1.6,0.3s1.3,0.2 1.8,0.4c1,0.3 1.7,0.6 2.2,1.2s0.6,1.2 0.6,2.1z" fill="#7F1416"/>
   <path id="svg_5" d="m108.3,51.1l-1.7,0l0,-5.6c0,-0.5 0,-0.9 -0.1,-1.3s-0.1,-0.7 -0.3,-0.9c-0.1,-0.2 -0.4,-0.4 -0.6,-0.5s-0.6,-0.2 -1.1,-0.2c-0.5,0 -0.9,0.1 -1.4,0.3s-1,0.5 -1.4,0.9l0,7.3l-1.7,0l0,-13.7l1.7,0l0,4.9c0.5,-0.4 1,-0.8 1.6,-1s1.1,-0.4 1.7,-0.4c1.1,0 1.9,0.3 2.4,1s0.8,1.6 0.8,2.8l0,6.4l0.1,0z" fill="#7F1416"/>
   <path id="svg_6" d="m119.7,46.3l-7.2,0c0,0.6 0.1,1.1 0.3,1.6s0.4,0.8 0.7,1.1c0.3,0.3 0.7,0.5 1.1,0.6s0.9,0.2 1.4,0.2c0.7,0 1.3,-0.1 2,-0.4s1.2,-0.5 1.4,-0.8l0.1,0l0,1.8c-0.6,0.2 -1.1,0.4 -1.7,0.6s-1.2,0.2 -1.8,0.2c-1.6,0 -2.9,-0.4 -3.8,-1.3s-1.4,-2.1 -1.4,-3.8c0,-1.6 0.4,-2.9 1.3,-3.8s2,-1.4 3.5,-1.4c1.3,0 2.3,0.4 3.1,1.2s1.1,1.9 1.1,3.3l0,0.9l-0.1,0zm-1.6,-1.2c0,-0.9 -0.2,-1.5 -0.7,-2s-1.1,-0.7 -2,-0.7c-0.9,0 -1.6,0.3 -2.1,0.8s-0.8,1.2 -0.9,1.9l5.7,0z" fill="#7F1416"/>
   <path id="svg_7" d="m123.8,51.1l-1.7,0l0,-13.7l1.7,0l0,13.7z" fill="#7F1416"/>
   <path id="svg_8" d="m132.2,51c-0.3,0.1 -0.6,0.1 -1,0.2s-0.7,0.1 -1,0.1c-1,0 -1.8,-0.3 -2.3,-0.8s-0.8,-1.4 -0.8,-2.6l0,-5.2l-1.1,0l0,-1.4l1.1,0l0,-2.8l1.7,0l0,2.8l3.4,0l0,1.4l-3.4,0l0,4.5c0,0.5 0,0.9 0,1.2s0.1,0.6 0.2,0.8c0.1,0.2 0.3,0.4 0.5,0.5s0.6,0.2 1,0.2c0.3,0 0.6,0 0.8,-0.1s0.5,-0.1 0.6,-0.2l0.1,0l0,1.4l0.2,0z" fill="#7F1416"/>
   <path id="svg_9" d="m142.4,46.3l-7.2,0c0,0.6 0.1,1.1 0.3,1.6s0.4,0.8 0.7,1.1c0.3,0.3 0.7,0.5 1.1,0.6s0.9,0.2 1.4,0.2c0.7,0 1.3,-0.1 2,-0.4s1.2,-0.5 1.4,-0.8l0.1,0l0,1.8c-0.6,0.2 -1.1,0.4 -1.7,0.6s-1.2,0.2 -1.8,0.2c-1.6,0 -2.9,-0.4 -3.8,-1.3s-1.4,-2.1 -1.4,-3.8c0,-1.6 0.4,-2.9 1.3,-3.8s2,-1.4 3.5,-1.4c1.3,0 2.3,0.4 3.1,1.2s1.1,1.9 1.1,3.3l0,0.9l-0.1,0zm-1.6,-1.2c0,-0.9 -0.2,-1.5 -0.7,-2s-1.1,-0.7 -2,-0.7c-0.9,0 -1.6,0.3 -2.1,0.8s-0.8,1.2 -0.9,1.9l5.7,0z" fill="#7F1416"/>
   <path id="svg_10" d="m151.1,43l0,0c-0.3,-0.1 -0.6,-0.1 -0.8,-0.1s-0.5,0 -0.8,0c-0.5,0 -1,0.1 -1.5,0.3s-0.9,0.5 -1.4,0.9l0,7l-1.7,0l0,-9.8l1.7,0l0,1.5c0.7,-0.5 1.2,-0.9 1.7,-1.1s1,-0.3 1.5,-0.3c0.3,0 0.5,0 0.6,0s0.3,0 0.6,0.1l0,1.5l0.1,0z" fill="#7F1416"/>
   <path id="svg_11" d="m162.9,50.1c-0.3,0.1 -0.6,0.3 -0.9,0.4s-0.6,0.3 -1,0.4c-0.4,0.1 -0.7,0.2 -1.2,0.3s-0.9,0.1 -1.4,0.1c-0.9,0 -1.8,-0.1 -2.6,-0.4s-1.5,-0.7 -2,-1.3c-0.6,-0.6 -1,-1.3 -1.3,-2.1s-0.5,-1.9 -0.5,-3c0,-1.1 0.2,-2 0.5,-2.9s0.7,-1.6 1.3,-2.2c0.6,-0.6 1.2,-1 2,-1.3s1.7,-0.4 2.6,-0.4c0.7,0 1.4,0.1 2.1,0.3s1.5,0.5 2.3,0.9l0,2.1l-0.1,0c-0.7,-0.6 -1.4,-1 -2.1,-1.3s-1.5,-0.4 -2.3,-0.4c-0.7,0 -1.3,0.1 -1.8,0.3s-1,0.5 -1.4,1c-0.4,0.4 -0.7,1 -0.9,1.7s-0.3,1.4 -0.3,2.3c0,0.9 0.1,1.7 0.4,2.4s0.6,1.2 1,1.6c0.4,0.4 0.9,0.8 1.4,1s1.1,0.3 1.7,0.3c0.8,0 1.6,-0.1 2.4,-0.4s1.4,-0.7 2.1,-1.3l0.1,0l0,1.9l-0.1,0z" fill="#7F1416"/>
   <path id="svg_12" d="m166.9,51.1l-1.7,0l0,-13.7l1.7,0l0,13.7z" fill="#7F1416"/>
   <path id="svg_13" d="m178.3,51.1l-1.7,0l0,-1.1c-0.6,0.4 -1.1,0.8 -1.6,1s-1.1,0.4 -1.7,0.4c-1,0 -1.8,-0.3 -2.4,-0.9s-0.9,-1.6 -0.9,-2.8l0,-6.4l1.7,0l0,5.6c0,0.5 0,0.9 0.1,1.3s0.1,0.7 0.3,0.9c0.2,0.3 0.4,0.4 0.6,0.6s0.6,0.2 1.1,0.2c0.4,0 0.9,-0.1 1.4,-0.3c0.5,-0.2 1,-0.5 1.4,-0.9l0,-7.3l1.7,0l0,9.7z" fill="#7F1416"/>
   <path id="svg_14" d="m188.5,48.2c0,0.9 -0.4,1.6 -1.1,2.2s-1.8,0.9 -3,0.9c-0.7,0 -1.4,-0.1 -2,-0.3c-0.6,-0.2 -1.1,-0.4 -1.5,-0.6l0,-1.9l0.1,0c0.5,0.4 1.1,0.7 1.7,0.9s1.3,0.3 1.8,0.3c0.7,0 1.3,-0.1 1.7,-0.4s0.6,-0.6 0.6,-1.1c0,-0.4 -0.1,-0.7 -0.3,-0.9s-0.7,-0.4 -1.3,-0.5c-0.2,-0.1 -0.5,-0.1 -0.9,-0.2c-0.4,-0.1 -0.7,-0.1 -1,-0.2c-0.9,-0.2 -1.5,-0.6 -1.8,-1c-0.4,-0.4 -0.5,-1 -0.5,-1.6c0,-0.4 0.1,-0.8 0.3,-1.1c0.2,-0.4 0.4,-0.7 0.8,-1c0.3,-0.3 0.7,-0.5 1.3,-0.7s1.1,-0.2 1.7,-0.2c0.6,0 1.2,0.1 1.8,0.2s1.1,0.3 1.5,0.5l0,1.8l-0.1,0c-0.4,-0.3 -0.9,-0.6 -1.5,-0.8s-1.2,-0.3 -1.8,-0.3c-0.6,0 -1.1,0.1 -1.5,0.3s-0.6,0.6 -0.6,1c0,0.4 0.1,0.7 0.4,0.9c0.2,0.2 0.6,0.4 1.2,0.5c0.3,0.1 0.6,0.1 1,0.2c0.4,0.1 0.7,0.1 0.9,0.2c0.8,0.2 1.4,0.5 1.8,0.9c0.1,0.7 0.3,1.3 0.3,2z" fill="#7F1416"/>
   <path id="svg_15" d="m196,51c-0.3,0.1 -0.6,0.1 -1,0.2c-0.4,0.1 -0.7,0.1 -1,0.1c-1,0 -1.8,-0.3 -2.3,-0.8s-0.8,-1.4 -0.8,-2.6l0,-5.2l-1.1,0l0,-1.4l1.1,0l0,-2.8l1.7,0l0,2.8l3.4,0l0,1.4l-3.4,0l0,4.5c0,0.5 0,0.9 0,1.2s0.1,0.6 0.2,0.8c0.1,0.2 0.3,0.4 0.5,0.5c0.2,0.1 0.6,0.2 1,0.2c0.3,0 0.6,0 0.8,-0.1s0.5,-0.1 0.6,-0.2l0.1,0l0,1.4l0.2,0z" fill="#7F1416"/>
   <path id="svg_16" d="m206.2,46.3l-7.2,0c0,0.6 0.1,1.1 0.3,1.6s0.4,0.8 0.7,1.1c0.3,0.3 0.7,0.5 1.1,0.6s0.9,0.2 1.4,0.2c0.7,0 1.3,-0.1 2,-0.4c0.7,-0.3 1.2,-0.5 1.4,-0.8l0.1,0l0,1.8c-0.6,0.2 -1.1,0.4 -1.7,0.6s-1.2,0.2 -1.8,0.2c-1.6,0 -2.9,-0.4 -3.8,-1.3s-1.4,-2.1 -1.4,-3.8c0,-1.6 0.4,-2.9 1.3,-3.8c0.9,-0.9 2,-1.4 3.5,-1.4c1.3,0 2.3,0.4 3.1,1.2c0.7,0.8 1.1,1.9 1.1,3.3l0,0.9l-0.1,0zm-1.6,-1.2c0,-0.9 -0.2,-1.5 -0.7,-2c-0.4,-0.5 -1.1,-0.7 -2,-0.7c-0.9,0 -1.6,0.3 -2.1,0.8s-0.8,1.2 -0.9,1.9l5.7,0z" fill="#7F1416"/>
   <path id="svg_17" d="m214.8,43l0,0c-0.3,-0.1 -0.6,-0.1 -0.8,-0.1s-0.5,0 -0.8,0c-0.5,0 -1,0.1 -1.5,0.3s-0.9,0.5 -1.4,0.9l0,7l-1.7,0l0,-9.8l1.7,0l0,1.5c0.7,-0.5 1.2,-0.9 1.7,-1.1c0.5,-0.2 1,-0.3 1.5,-0.3c0.3,0 0.5,0 0.6,0s0.3,0 0.6,0.1l0,1.5l0.1,0z" fill="#7F1416"/>
   <path id="svg_18" d="m216.5,51.1l-2.1,0l0,-2.5l2.1,0l0,2.5z" fill="#7F1416"/>
   <path id="svg_19" d="m228.8,46.2c0,1.6 -0.4,2.9 -1.2,3.8s-1.9,1.4 -3.3,1.4c-1.4,0 -2.5,-0.5 -3.3,-1.4c-0.8,-0.9 -1.2,-2.2 -1.2,-3.8s0.4,-2.9 1.2,-3.8c0.8,-0.9 1.9,-1.4 3.3,-1.4c1.4,0 2.5,0.5 3.3,1.4s1.2,2.2 1.2,3.8zm-1.8,0c0,-1.3 -0.2,-2.2 -0.7,-2.8s-1.2,-0.9 -2.1,-0.9c-0.9,0 -1.6,0.3 -2.1,0.9s-0.7,1.6 -0.7,2.8c0,1.2 0.2,2.2 0.7,2.8s1.2,1 2.1,1c0.9,0 1.6,-0.3 2.1,-0.9c0.5,-0.8 0.7,-1.7 0.7,-2.9z" fill="#7F1416"/>
   <path id="svg_20" d="m237.4,43l0,0c-0.3,-0.1 -0.6,-0.1 -0.8,-0.1s-0.5,0 -0.8,0c-0.5,0 -1,0.1 -1.5,0.3s-0.9,0.5 -1.4,0.9l0,7l-1.7,0l0,-9.8l1.7,0l0,1.5c0.7,-0.5 1.2,-0.9 1.7,-1.1c0.5,-0.2 1,-0.3 1.5,-0.3c0.3,0 0.5,0 0.6,0s0.3,0 0.6,0.1l0,1.5l0.1,0z" fill="#7F1416"/>
   <path id="svg_21" d="m247,49.9c0,1.7 -0.4,2.9 -1.1,3.7s-1.9,1.2 -3.5,1.2c-0.5,0 -1,0 -1.5,-0.1c-0.5,-0.1 -1,-0.2 -1.5,-0.3l0,-1.7l0.1,0c0.3,0.1 0.7,0.2 1.3,0.4s1.2,0.2 1.8,0.2c0.6,0 1,-0.1 1.4,-0.2s0.7,-0.3 0.9,-0.6c0.2,-0.2 0.4,-0.5 0.4,-0.8s0.1,-0.7 0.1,-1.1l0,-0.9c-0.5,0.4 -1,0.7 -1.4,0.9s-1,0.3 -1.7,0.3c-1.2,0 -2.1,-0.4 -2.8,-1.3c-0.7,-0.8 -1,-2 -1,-3.6c0,-0.8 0.1,-1.6 0.4,-2.2c0.2,-0.6 0.6,-1.1 1,-1.6c0.4,-0.4 0.8,-0.7 1.4,-1s1.1,-0.3 1.6,-0.3c0.6,0 1,0.1 1.4,0.2s0.8,0.3 1.2,0.5l0.1,-0.4l1.5,0l0,8.7l-0.1,0zm-1.7,-1.5l0,-5.4c-0.4,-0.2 -0.8,-0.3 -1.2,-0.4c-0.4,-0.1 -0.8,-0.1 -1.1,-0.1c-0.9,0 -1.6,0.3 -2.1,0.9s-0.8,1.5 -0.8,2.7c0,1.1 0.2,1.9 0.6,2.5s1,0.9 1.9,0.9c0.5,0 1,-0.1 1.4,-0.3c0.5,-0.3 0.9,-0.5 1.3,-0.8z" fill="#7F1416"/>
  </g>
  <g id="svg_22">
   <path id="svg_23" d="m97.4,67.6c-0.3,0.1 -0.6,0.2 -0.8,0.4c-0.2,0.1 -0.6,0.2 -1,0.3c-0.3,0.1 -0.7,0.2 -1.1,0.3c-0.4,0.1 -0.8,0.1 -1.3,0.1c-0.9,0 -1.7,-0.1 -2.4,-0.4s-1.3,-0.6 -1.9,-1.1c-0.5,-0.5 -0.9,-1.1 -1.2,-1.9c-0.3,-0.8 -0.4,-1.6 -0.4,-2.7c0,-1 0.1,-1.8 0.4,-2.6c0.3,-0.8 0.7,-1.4 1.2,-1.9c0.5,-0.5 1.1,-0.9 1.9,-1.2s1.5,-0.4 2.4,-0.4c0.7,0 1.3,0.1 2,0.2c0.7,0.2 1.4,0.4 2.2,0.8l0,1.8l-0.1,0c-0.7,-0.5 -1.3,-0.9 -2,-1.2c-0.7,-0.2 -1.4,-0.4 -2.1,-0.4c-0.6,0 -1.2,0.1 -1.7,0.3c-0.5,0.2 -0.9,0.5 -1.3,0.9c-0.4,0.4 -0.7,0.9 -0.9,1.5c-0.2,0.6 -0.3,1.3 -0.3,2.1c0,0.8 0.1,1.5 0.3,2.1c0.2,0.6 0.5,1.1 0.9,1.4c0.4,0.4 0.8,0.7 1.3,0.9c0.5,0.2 1,0.3 1.6,0.3c0.8,0 1.5,-0.1 2.2,-0.4c0.7,-0.3 1.3,-0.6 1.9,-1.1l0.1,0l0,1.9l0.1,0z" fill="#58595B" class="second-color"/>
   <path id="svg_24" d="m107.3,64.1c0,1.4 -0.4,2.5 -1.1,3.4c-0.8,0.8 -1.8,1.2 -3.1,1.2c-1.3,0 -2.3,-0.4 -3.1,-1.2c-0.8,-0.8 -1.1,-1.9 -1.1,-3.4s0.4,-2.5 1.1,-3.4c0.8,-0.8 1.8,-1.2 3.1,-1.2c1.3,0 2.3,0.4 3.1,1.2c0.7,0.9 1.1,2 1.1,3.4zm-1.6,0c0,-1.1 -0.2,-2 -0.7,-2.5c-0.5,-0.5 -1.1,-0.8 -1.9,-0.8c-0.8,0 -1.5,0.3 -1.9,0.8c-0.5,0.5 -0.7,1.4 -0.7,2.5c0,1.1 0.2,1.9 0.7,2.5c0.5,0.6 1.1,0.8 1.9,0.8c0.8,0 1.5,-0.3 1.9,-0.8c0.5,-0.5 0.7,-1.4 0.7,-2.5z" fill="#58595B" class="second-color"/>
   <path id="svg_25" d="m117.5,64.1c0,1.4 -0.4,2.5 -1.1,3.4c-0.8,0.8 -1.8,1.2 -3.1,1.2c-1.3,0 -2.3,-0.4 -3.1,-1.2c-0.8,-0.8 -1.1,-1.9 -1.1,-3.4s0.4,-2.5 1.1,-3.4c0.8,-0.8 1.8,-1.2 3.1,-1.2c1.3,0 2.3,0.4 3.1,1.2c0.7,0.9 1.1,2 1.1,3.4zm-1.6,0c0,-1.1 -0.2,-2 -0.7,-2.5c-0.5,-0.5 -1.1,-0.8 -1.9,-0.8c-0.8,0 -1.5,0.3 -1.9,0.8c-0.5,0.5 -0.7,1.4 -0.7,2.5c0,1.1 0.2,1.9 0.7,2.5c0.5,0.6 1.1,0.8 1.9,0.8c0.8,0 1.5,-0.3 1.9,-0.8c0.4,-0.5 0.7,-1.4 0.7,-2.5z" fill="#58595B" class="second-color"/>
   <path id="svg_26" d="m125.5,61.4l0,0c-0.3,-0.1 -0.5,-0.1 -0.7,-0.1c-0.2,0 -0.5,0 -0.8,0c-0.5,0 -0.9,0.1 -1.4,0.3c-0.4,0.2 -0.9,0.5 -1.3,0.8l0,6.2l-1.5,0l0,-8.7l1.5,0l0,1.1c0.6,-0.5 1.1,-0.8 1.6,-1c0.5,-0.2 0.9,-0.3 1.4,-0.3c0.3,0 0.5,0 0.6,0c0.1,0 0.3,0 0.5,0.1l0,1.6l0.1,0z" fill="#58595B" class="second-color"/>
   <path id="svg_27" d="m134.4,68.5l-1.5,0l0,-0.9c-0.4,0.4 -0.9,0.6 -1.4,0.9c-0.5,0.2 -1,0.3 -1.6,0.3c-1.1,0 -2,-0.4 -2.6,-1.2c-0.6,-0.8 -1,-1.9 -1,-3.3c0,-0.7 0.1,-1.4 0.3,-2c0.2,-0.6 0.5,-1.1 0.9,-1.5c0.4,-0.4 0.8,-0.7 1.3,-0.9c0.5,-0.2 1,-0.3 1.5,-0.3c0.5,0 0.9,0 1.3,0.1c0.4,0.1 0.8,0.2 1.2,0.4l0,-3.8l1.5,0l0,12.2l0.1,0zm-1.6,-2.2l0,-5c-0.4,-0.2 -0.8,-0.3 -1.1,-0.4c-0.3,-0.1 -0.7,-0.1 -1.1,-0.1c-0.9,0 -1.5,0.3 -2,0.9c-0.5,0.6 -0.7,1.4 -0.7,2.4c0,1 0.2,1.8 0.6,2.4c0.4,0.5 1,0.8 1.8,0.8c0.4,0 0.9,-0.1 1.3,-0.3c0.4,-0.1 0.9,-0.4 1.2,-0.7z" fill="#58595B" class="second-color"/>
   <path id="svg_28" d="m139,58.3l-1.7,0l0,-1.5l1.7,0l0,1.5zm-0.1,10.2l-1.5,0l0,-8.7l1.5,0l0,8.7z" fill="#58595B" class="second-color"/>
   <path id="svg_29" d="m149.6,68.5l-1.5,0l0,-5c0,-0.4 0,-0.8 -0.1,-1.1s-0.1,-0.6 -0.3,-0.8c-0.1,-0.2 -0.3,-0.4 -0.6,-0.5c-0.3,-0.1 -0.6,-0.2 -1,-0.2c-0.4,0 -0.9,0.1 -1.3,0.3c-0.5,0.2 -0.9,0.5 -1.3,0.8l0,6.5l-1.5,0l0,-8.7l1.5,0l0,1c0.5,-0.4 1,-0.7 1.5,-0.9c0.5,-0.2 1,-0.3 1.6,-0.3c1,0 1.7,0.3 2.3,0.9c0.5,0.6 0.8,1.4 0.8,2.5l0,5.5l-0.1,0z" fill="#58595B" class="second-color"/>
   <path id="svg_30" d="m159.7,68.5l-1.5,0l0,-0.9c-0.1,0.1 -0.3,0.2 -0.6,0.4c-0.2,0.2 -0.5,0.3 -0.7,0.4c-0.3,0.1 -0.6,0.2 -0.9,0.3c-0.3,0.1 -0.7,0.1 -1.2,0.1c-0.8,0 -1.5,-0.3 -2.1,-0.8c-0.6,-0.5 -0.9,-1.2 -0.9,-2c0,-0.7 0.1,-1.2 0.4,-1.6c0.3,-0.4 0.7,-0.7 1.3,-1c0.6,-0.2 1.2,-0.4 2,-0.5c0.8,-0.1 1.6,-0.1 2.5,-0.2l0,-0.2c0,-0.3 -0.1,-0.6 -0.2,-0.8s-0.3,-0.4 -0.5,-0.5c-0.2,-0.1 -0.5,-0.2 -0.8,-0.2c-0.3,0 -0.6,-0.1 -1,-0.1c-0.4,0 -0.9,0.1 -1.3,0.2c-0.5,0.1 -1,0.2 -1.5,0.4l-0.1,0l0,-1.5c0.3,-0.1 0.7,-0.2 1.3,-0.3s1.1,-0.1 1.7,-0.1c0.6,0 1.2,0.1 1.7,0.2s0.9,0.3 1.2,0.5c0.3,0.2 0.6,0.5 0.8,0.9c0.2,0.4 0.3,0.9 0.3,1.4l0,5.9l0.1,0zm-1.6,-2.2l0,-2.4c-0.5,0 -1,0.1 -1.7,0.1c-0.6,0.1 -1.1,0.1 -1.5,0.2c-0.4,0.1 -0.8,0.3 -1.1,0.6c-0.3,0.3 -0.4,0.6 -0.4,1c0,0.5 0.2,0.9 0.5,1.1c0.3,0.3 0.8,0.4 1.4,0.4c0.5,0 1,-0.1 1.5,-0.3c0.5,-0.1 1,-0.4 1.3,-0.7z" fill="#58595B" class="second-color"/>
   <path id="svg_31" d="m167.4,68.4c-0.3,0.1 -0.6,0.1 -0.9,0.2s-0.6,0.1 -0.9,0.1c-0.9,0 -1.6,-0.2 -2.1,-0.7c-0.5,-0.5 -0.7,-1.2 -0.7,-2.3l0,-4.7l-1,0l0,-1.2l1,0l0,-2.5l1.5,0l0,2.5l3.2,0l0,1.2l-3.2,0l0,4c0,0.5 0,0.8 0,1.1s0.1,0.5 0.2,0.7c0.1,0.2 0.3,0.4 0.5,0.5c0.2,0.1 0.5,0.1 1,0.1c0.3,0 0.5,0 0.8,-0.1c0.3,-0.1 0.5,-0.1 0.6,-0.2l0.1,0l0,1.3l-0.1,0z" fill="#58595B" class="second-color"/>
   <path id="svg_32" d="m170.9,58.3l-1.7,0l0,-1.5l1.7,0l0,1.5zm-0.1,10.2l-1.5,0l0,-8.7l1.5,0l0,8.7z" fill="#58595B" class="second-color"/>
   <path id="svg_33" d="m181.4,68.5l-1.5,0l0,-5c0,-0.4 0,-0.8 -0.1,-1.1s-0.1,-0.6 -0.3,-0.8c-0.1,-0.2 -0.3,-0.4 -0.6,-0.5c-0.3,-0.1 -0.6,-0.2 -1,-0.2c-0.4,0 -0.9,0.1 -1.3,0.3c-0.5,0.2 -0.9,0.5 -1.3,0.8l0,6.5l-1.5,0l0,-8.7l1.5,0l0,1c0.5,-0.4 1,-0.7 1.5,-0.9c0.5,-0.2 1,-0.3 1.6,-0.3c1,0 1.7,0.3 2.3,0.9c0.5,0.6 0.8,1.4 0.8,2.5l0,5.5l-0.1,0z" fill="#58595B" class="second-color"/>
   <path id="svg_34" d="m191.8,67.5c0,1.5 -0.4,2.6 -1.1,3.3c-0.7,0.7 -1.8,1 -3.2,1c-0.5,0 -1,0 -1.4,-0.1c-0.5,-0.1 -0.9,-0.2 -1.4,-0.3l0,-1.5l0.1,0c0.2,0.1 0.6,0.2 1.2,0.3c0.5,0.1 1.1,0.2 1.6,0.2c0.5,0 1,-0.1 1.3,-0.2c0.3,-0.1 0.6,-0.3 0.8,-0.5c0.2,-0.2 0.3,-0.4 0.4,-0.7c0.1,-0.3 0.1,-0.6 0.1,-1l0,-0.8c-0.5,0.4 -0.9,0.6 -1.3,0.8c-0.4,0.2 -1,0.3 -1.6,0.3c-1.1,0 -2,-0.4 -2.6,-1.1c-0.6,-0.8 -1,-1.8 -1,-3.2c0,-0.8 0.1,-1.4 0.3,-1.9c0.2,-0.5 0.5,-1 0.9,-1.4c0.4,-0.4 0.8,-0.7 1.3,-0.9c0.5,-0.2 1,-0.3 1.5,-0.3c0.5,0 1,0.1 1.3,0.2s0.7,0.3 1.1,0.5l0.1,-0.4l1.4,0l0,7.7l0.2,0zm-1.5,-1.4l0,-4.8c-0.4,-0.2 -0.8,-0.3 -1.1,-0.4c-0.4,-0.1 -0.7,-0.1 -1,-0.1c-0.8,0 -1.5,0.3 -2,0.8c-0.5,0.5 -0.7,1.3 -0.7,2.4c0,1 0.2,1.7 0.5,2.2c0.4,0.5 1,0.8 1.8,0.8c0.4,0 0.9,-0.1 1.3,-0.2s0.8,-0.4 1.2,-0.7z" fill="#58595B" class="second-color"/>
   <path id="svg_35" d="m210.1,68.5l-1.6,0l0,-5.7l-6.1,0l0,5.7l-1.6,0l0,-11.7l1.6,0l0,4.6l6.1,0l0,-4.6l1.6,0l0,11.7z" fill="#58595B" class="second-color"/>
   <path id="svg_36" d="m220.8,68.5l-1.5,0l0,-1c-0.5,0.4 -1,0.7 -1.5,0.9c-0.5,0.2 -1,0.3 -1.6,0.3c-1,0 -1.7,-0.3 -2.2,-0.8c-0.5,-0.6 -0.8,-1.4 -0.8,-2.5l0,-5.7l1.5,0l0,5c0,0.4 0,0.8 0.1,1.1c0,0.3 0.1,0.6 0.3,0.8c0.1,0.2 0.3,0.4 0.6,0.5c0.2,0.1 0.6,0.2 1,0.2c0.4,0 0.8,-0.1 1.3,-0.3c0.5,-0.2 0.9,-0.5 1.3,-0.8l0,-6.5l1.5,0l0,8.8z" fill="#58595B" class="second-color"/>
   <path id="svg_37" d="m237.2,68.5l-1.5,0l0,-5c0,-0.4 0,-0.7 -0.1,-1.1c0,-0.3 -0.1,-0.6 -0.2,-0.8c-0.1,-0.2 -0.3,-0.4 -0.5,-0.5c-0.2,-0.1 -0.6,-0.2 -1,-0.2c-0.4,0 -0.9,0.1 -1.3,0.3c-0.4,0.2 -0.9,0.5 -1.3,0.8c0,0.1 0,0.3 0,0.4c0,0.2 0,0.3 0,0.5l0,5.6l-1.5,0l0,-5c0,-0.4 0,-0.8 -0.1,-1.1c0,-0.3 -0.1,-0.6 -0.2,-0.8c-0.1,-0.2 -0.3,-0.4 -0.5,-0.5c-0.2,-0.1 -0.6,-0.2 -1,-0.2c-0.4,0 -0.8,0.1 -1.3,0.3c-0.4,0.2 -0.8,0.5 -1.3,0.8l0,6.5l-1.5,0l0,-8.7l1.5,0l0,1c0.5,-0.4 1,-0.7 1.4,-0.9c0.5,-0.2 1,-0.3 1.5,-0.3c0.6,0 1.1,0.1 1.6,0.4s0.8,0.6 1,1c0.6,-0.5 1.2,-0.9 1.7,-1.1c0.5,-0.2 1.1,-0.3 1.6,-0.3c1,0 1.7,0.3 2.2,0.9c0.5,0.6 0.7,1.4 0.7,2.4l0,5.6l0.1,0z" fill="#58595B" class="second-color"/>
   <path id="svg_38" d="m247.2,68.5l-1.5,0l0,-0.9c-0.1,0.1 -0.3,0.2 -0.6,0.4c-0.2,0.2 -0.5,0.3 -0.7,0.4c-0.3,0.1 -0.5,0.2 -0.9,0.3c-0.3,0.1 -0.7,0.1 -1.2,0.1c-0.8,0 -1.5,-0.3 -2.1,-0.8c-0.6,-0.5 -0.9,-1.2 -0.9,-2c0,-0.7 0.1,-1.2 0.4,-1.6c0.3,-0.4 0.7,-0.7 1.3,-1c0.6,-0.2 1.2,-0.4 2,-0.5c0.8,-0.1 1.6,-0.1 2.5,-0.2l0,-0.2c0,-0.3 -0.1,-0.6 -0.2,-0.8c-0.1,-0.2 -0.3,-0.4 -0.5,-0.5c-0.2,-0.1 -0.5,-0.2 -0.8,-0.2c-0.3,0 -0.6,-0.1 -1,-0.1c-0.4,0 -0.9,0.1 -1.3,0.2c-0.5,0.1 -1,0.2 -1.5,0.4l-0.1,0l0,-1.5c0.3,-0.1 0.7,-0.2 1.3,-0.3s1.1,-0.1 1.7,-0.1c0.6,0 1.2,0.1 1.7,0.2s0.9,0.3 1.2,0.5c0.3,0.2 0.6,0.5 0.8,0.9c0.2,0.4 0.3,0.9 0.3,1.4l0,5.9l0.1,0zm-1.5,-2.2l0,-2.4c-0.5,0 -1,0.1 -1.7,0.1c-0.6,0.1 -1.1,0.1 -1.5,0.2c-0.4,0.1 -0.8,0.3 -1.1,0.6c-0.3,0.3 -0.4,0.6 -0.4,1c0,0.5 0.2,0.9 0.5,1.1c0.3,0.3 0.8,0.4 1.4,0.4c0.5,0 1,-0.1 1.5,-0.3c0.5,-0.1 0.9,-0.4 1.3,-0.7z" fill="#58595B" class="second-color"/>
   <path id="svg_39" d="m257.8,68.5l-1.5,0l0,-5c0,-0.4 0,-0.8 -0.1,-1.1c0,-0.4 -0.1,-0.6 -0.3,-0.8c-0.1,-0.2 -0.3,-0.4 -0.6,-0.5c-0.3,-0.1 -0.6,-0.2 -1,-0.2c-0.4,0 -0.9,0.1 -1.3,0.3c-0.5,0.2 -0.9,0.5 -1.3,0.8l0,6.5l-1.5,0l0,-8.7l1.5,0l0,1c0.5,-0.4 1,-0.7 1.5,-0.9c0.5,-0.2 1,-0.3 1.6,-0.3c1,0 1.7,0.3 2.3,0.9c0.5,0.6 0.8,1.4 0.8,2.5l0,5.5l-0.1,0z" fill="#58595B" class="second-color"/>
   <path id="svg_40" d="m262.4,58.3l-1.7,0l0,-1.5l1.7,0l0,1.5zm-0.1,10.2l-1.5,0l0,-8.7l1.5,0l0,8.7z" fill="#58595B" class="second-color"/>
   <path id="svg_41" d="m270.1,68.4c-0.3,0.1 -0.6,0.1 -0.9,0.2c-0.3,0 -0.6,0.1 -0.9,0.1c-0.9,0 -1.6,-0.2 -2.1,-0.7c-0.5,-0.5 -0.7,-1.2 -0.7,-2.3l0,-4.7l-1,0l0,-1.2l1,0l0,-2.5l1.5,0l0,2.5l3.2,0l0,1.2l-3.2,0l0,4c0,0.5 0,0.8 0,1.1s0.1,0.5 0.2,0.7c0.1,0.2 0.3,0.4 0.5,0.5c0.2,0.1 0.5,0.1 1,0.1c0.3,0 0.5,0 0.8,-0.1s0.5,-0.1 0.6,-0.2l0.1,0l0,1.3l-0.1,0z" fill="#58595B" class="second-color"/>
   <path id="svg_42" d="m279,68.5l-1.5,0l0,-0.9c-0.1,0.1 -0.3,0.2 -0.6,0.4c-0.2,0.2 -0.5,0.3 -0.7,0.4c-0.3,0.1 -0.5,0.2 -0.9,0.3c-0.3,0.1 -0.7,0.1 -1.2,0.1c-0.8,0 -1.5,-0.3 -2.1,-0.8c-0.6,-0.5 -0.9,-1.2 -0.9,-2c0,-0.7 0.1,-1.2 0.4,-1.6c0.3,-0.4 0.7,-0.7 1.3,-1c0.6,-0.2 1.2,-0.4 2,-0.5c0.8,-0.1 1.6,-0.1 2.5,-0.2l0,-0.2c0,-0.3 -0.1,-0.6 -0.2,-0.8c-0.1,-0.2 -0.3,-0.4 -0.5,-0.5c-0.2,-0.1 -0.5,-0.2 -0.8,-0.2c-0.3,0 -0.6,-0.1 -1,-0.1c-0.4,0 -0.9,0.1 -1.3,0.2c-0.5,0.1 -1,0.2 -1.5,0.4l-0.1,0l0,-1.5c0.3,-0.1 0.7,-0.2 1.3,-0.3s1.1,-0.1 1.7,-0.1c0.6,0 1.2,0.1 1.7,0.2s0.9,0.3 1.2,0.5c0.3,0.2 0.6,0.5 0.8,0.9c0.2,0.4 0.3,0.9 0.3,1.4l0,5.9l0.1,0zm-1.5,-2.2l0,-2.4c-0.5,0 -1,0.1 -1.7,0.1c-0.6,0.1 -1.1,0.1 -1.5,0.2c-0.4,0.1 -0.8,0.3 -1.1,0.6c-0.3,0.3 -0.4,0.6 -0.4,1c0,0.5 0.2,0.9 0.5,1.1c0.3,0.3 0.8,0.4 1.4,0.4c0.5,0 1,-0.1 1.5,-0.3c0.5,-0.1 0.9,-0.4 1.3,-0.7z" fill="#58595B" class="second-color"/>
   <path id="svg_43" d="m287.7,61.4l0,0c-0.3,-0.1 -0.5,-0.1 -0.7,-0.1c-0.2,0 -0.5,0 -0.8,0c-0.5,0 -0.9,0.1 -1.4,0.3c-0.4,0.2 -0.9,0.5 -1.3,0.8l0,6.2l-1.5,0l0,-8.7l1.5,0l0,1.1c0.6,-0.5 1.1,-0.8 1.6,-1s0.9,-0.3 1.4,-0.3c0.3,0 0.5,0 0.6,0c0.1,0 0.3,0 0.5,0.1l0,1.6l0.1,0z" fill="#58595B" class="second-color"/>
   <path id="svg_44" d="m290.8,58.3l-1.7,0l0,-1.5l1.7,0l0,1.5zm-0.1,10.2l-1.5,0l0,-8.7l1.5,0l0,8.7z" fill="#58595B" class="second-color"/>
   <path id="svg_45" d="m300.8,68.5l-1.5,0l0,-0.9c-0.1,0.1 -0.3,0.2 -0.6,0.4c-0.2,0.2 -0.5,0.3 -0.7,0.4c-0.3,0.1 -0.5,0.2 -0.9,0.3c-0.3,0.1 -0.7,0.1 -1.2,0.1c-0.8,0 -1.5,-0.3 -2.1,-0.8c-0.6,-0.5 -0.9,-1.2 -0.9,-2c0,-0.7 0.1,-1.2 0.4,-1.6c0.3,-0.4 0.7,-0.7 1.3,-1c0.6,-0.2 1.2,-0.4 2,-0.5c0.8,-0.1 1.6,-0.1 2.5,-0.2l0,-0.2c0,-0.3 -0.1,-0.6 -0.2,-0.8c-0.1,-0.2 -0.3,-0.4 -0.5,-0.5c-0.2,-0.1 -0.5,-0.2 -0.8,-0.2c-0.3,0 -0.6,-0.1 -1,-0.1c-0.4,0 -0.9,0.1 -1.3,0.2c-0.5,0.1 -1,0.2 -1.5,0.4l-0.1,0l0,-1.5c0.3,-0.1 0.7,-0.2 1.3,-0.3s1.1,-0.1 1.7,-0.1c0.6,0 1.2,0.1 1.7,0.2s0.9,0.3 1.2,0.5c0.3,0.2 0.6,0.5 0.8,0.9c0.2,0.4 0.3,0.9 0.3,1.4l0,5.9l0.1,0zm-1.5,-2.2l0,-2.4c-0.5,0 -1,0.1 -1.7,0.1c-0.6,0.1 -1.1,0.1 -1.5,0.2c-0.4,0.1 -0.8,0.3 -1.1,0.6c-0.3,0.3 -0.4,0.6 -0.4,1c0,0.5 0.2,0.9 0.5,1.1c0.3,0.3 0.8,0.4 1.4,0.4c0.5,0 1,-0.1 1.5,-0.3c0.5,-0.1 0.9,-0.4 1.3,-0.7z" fill="#58595B" class="second-color"/>
   <path id="svg_46" d="m311.4,68.5l-1.5,0l0,-5c0,-0.4 0,-0.8 -0.1,-1.1c0,-0.4 -0.1,-0.6 -0.3,-0.8c-0.1,-0.2 -0.3,-0.4 -0.6,-0.5c-0.3,-0.1 -0.6,-0.2 -1,-0.2c-0.4,0 -0.9,0.1 -1.3,0.3c-0.5,0.2 -0.9,0.5 -1.3,0.8l0,6.5l-1.5,0l0,-8.7l1.5,0l0,1c0.5,-0.4 1,-0.7 1.5,-0.9c0.5,-0.2 1,-0.3 1.6,-0.3c1,0 1.7,0.3 2.3,0.9c0.5,0.6 0.8,1.4 0.8,2.5l0,5.5l-0.1,0z" fill="#58595B" class="second-color"/>
   <path id="svg_47" d="m329.2,65.2c0,0.5 -0.1,0.9 -0.3,1.3c-0.2,0.4 -0.5,0.8 -0.9,1.1c-0.4,0.3 -0.9,0.6 -1.5,0.8s-1.3,0.3 -2.1,0.3c-0.9,0 -1.7,-0.1 -2.4,-0.2c-0.7,-0.2 -1.4,-0.4 -2.1,-0.7l0,-1.9l0.1,0c0.6,0.5 1.3,0.9 2.1,1.1c0.8,0.3 1.6,0.4 2.3,0.4c1,0 1.8,-0.2 2.3,-0.5c0.6,-0.4 0.8,-0.8 0.8,-1.4c0,-0.5 -0.1,-0.9 -0.4,-1.1c-0.3,-0.2 -0.7,-0.4 -1.2,-0.6c-0.4,-0.1 -0.9,-0.2 -1.3,-0.3c-0.5,-0.1 -1,-0.2 -1.5,-0.3c-1.1,-0.2 -1.9,-0.6 -2.4,-1.1c-0.5,-0.5 -0.8,-1.2 -0.8,-2.1c0,-1 0.4,-1.8 1.3,-2.4c0.9,-0.6 2,-0.9 3.3,-0.9c0.9,0 1.6,0.1 2.4,0.2c0.7,0.2 1.3,0.3 1.9,0.6l0,1.8l-0.1,0c-0.5,-0.4 -1.1,-0.7 -1.8,-0.9c-0.8,-0.2 -1.5,-0.4 -2.3,-0.4c-0.9,0 -1.6,0.2 -2.1,0.5c-0.5,0.3 -0.8,0.8 -0.8,1.3c0,0.5 0.1,0.9 0.4,1.1c0.3,0.3 0.7,0.5 1.4,0.6c0.3,0.1 0.8,0.2 1.5,0.3c0.6,0.1 1.2,0.2 1.6,0.3c0.9,0.2 1.6,0.6 2,1c0.4,0.6 0.6,1.2 0.6,2.1z" fill="#58595B" class="second-color"/>
   <path id="svg_48" d="m339.3,68.5l-1.5,0l0,-5c0,-0.4 0,-0.8 -0.1,-1.1c0,-0.4 -0.1,-0.6 -0.3,-0.8c-0.1,-0.2 -0.3,-0.4 -0.6,-0.5c-0.3,-0.1 -0.6,-0.2 -1,-0.2c-0.4,0 -0.9,0.1 -1.3,0.3c-0.5,0.2 -0.9,0.5 -1.3,0.8l0,6.5l-1.5,0l0,-12.2l1.5,0l0,4.4c0.5,-0.4 1,-0.7 1.5,-0.9c0.5,-0.2 1,-0.3 1.6,-0.3c1,0 1.7,0.3 2.3,0.9c0.5,0.6 0.8,1.4 0.8,2.5l0,5.6l-0.1,0z" fill="#58595B" class="second-color"/>
   <path id="svg_49" d="m349.9,64.3l-6.7,0c0,0.5 0.1,1 0.3,1.4c0.2,0.4 0.4,0.7 0.7,1c0.3,0.2 0.6,0.4 1,0.6c0.4,0.1 0.8,0.2 1.3,0.2c0.6,0 1.2,-0.1 1.9,-0.4c0.6,-0.2 1.1,-0.5 1.3,-0.7l0.1,0l0,1.6c-0.5,0.2 -1,0.4 -1.6,0.5s-1.1,0.2 -1.7,0.2c-1.5,0 -2.7,-0.4 -3.5,-1.2c-0.8,-0.8 -1.3,-1.9 -1.3,-3.3c0,-1.4 0.4,-2.6 1.2,-3.4c0.8,-0.8 1.9,-1.3 3.2,-1.3c1.2,0 2.2,0.3 2.8,1s1,1.7 1,2.9l0,0.9zm-1.5,-1.2c0,-0.8 -0.2,-1.4 -0.6,-1.8s-1,-0.6 -1.8,-0.6c-0.8,0 -1.5,0.2 -2,0.7c-0.5,0.5 -0.8,1 -0.8,1.7l5.2,0z" fill="#58595B" class="second-color"/>
   <path id="svg_50" d="m353.8,68.5l-1.5,0l0,-12.2l1.5,0l0,12.2z" fill="#58595B" class="second-color"/>
   <path id="svg_51" d="m361.6,68.4c-0.3,0.1 -0.6,0.1 -0.9,0.2c-0.3,0 -0.6,0.1 -0.9,0.1c-0.9,0 -1.6,-0.2 -2.1,-0.7c-0.5,-0.5 -0.7,-1.2 -0.7,-2.3l0,-4.7l-1,0l0,-1.2l1,0l0,-2.5l1.5,0l0,2.5l3.2,0l0,1.2l-3.2,0l0,4c0,0.5 0,0.8 0,1.1s0.1,0.5 0.2,0.7c0.1,0.2 0.3,0.4 0.5,0.5c0.2,0.1 0.5,0.1 1,0.1c0.3,0 0.5,0 0.8,-0.1s0.5,-0.1 0.6,-0.2l0.1,0l0,1.3l-0.1,0z" fill="#58595B" class="second-color"/>
   <path id="svg_52" d="m371.1,64.3l-6.7,0c0,0.5 0.1,1 0.3,1.4c0.2,0.4 0.4,0.7 0.7,1c0.3,0.2 0.6,0.4 1,0.6c0.4,0.1 0.8,0.2 1.3,0.2c0.6,0 1.2,-0.1 1.9,-0.4c0.6,-0.2 1.1,-0.5 1.3,-0.7l0.1,0l0,1.6c-0.5,0.2 -1,0.4 -1.6,0.5s-1.1,0.2 -1.7,0.2c-1.5,0 -2.7,-0.4 -3.5,-1.2c-0.8,-0.8 -1.3,-1.9 -1.3,-3.3c0,-1.4 0.4,-2.6 1.2,-3.4c0.8,-0.8 1.9,-1.3 3.2,-1.3c1.2,0 2.2,0.3 2.8,1s1,1.7 1,2.9l0,0.9zm-1.5,-1.2c0,-0.8 -0.2,-1.4 -0.6,-1.8s-1,-0.6 -1.8,-0.6c-0.8,0 -1.5,0.2 -2,0.7c-0.5,0.5 -0.8,1 -0.8,1.7l5.2,0z" fill="#58595B" class="second-color"/>
   <path id="svg_53" d="m379.1,61.4l0,0c-0.3,-0.1 -0.5,-0.1 -0.7,-0.1c-0.2,0 -0.5,0 -0.8,0c-0.5,0 -0.9,0.1 -1.4,0.3c-0.4,0.2 -0.9,0.5 -1.3,0.8l0,6.2l-1.5,0l0,-8.7l1.5,0l0,1.1c0.6,-0.5 1.1,-0.8 1.6,-1s0.9,-0.3 1.4,-0.3c0.3,0 0.5,0 0.6,0c0.1,0 0.3,0 0.5,0.1l0,1.6l0.1,0z" fill="#58595B" class="second-color"/>
  </g>
  <g id="svg_54">
   <path id="svg_61" d="m102.3,27.84419c0,1.7 -0.7,3.1 -2.2,4.2s-3.4,1.6 -5.9,1.6c-1.4,0 -2.7,-0.1 -3.8,-0.4s-2.1,-0.6 -3,-1l0,-4.2l0.5,0c0.9,0.7 2,1.3 3.1,1.7s2.3,0.6 3.3,0.6c0.3,0 0.6,0 1.1,-0.1s0.8,-0.1 1.1,-0.2c0.3,-0.1 0.6,-0.3 0.8,-0.5s0.3,-0.5 0.3,-0.9c0,-0.4 -0.2,-0.7 -0.5,-1s-0.8,-0.5 -1.4,-0.6c-0.7,-0.2 -1.3,-0.3 -2.1,-0.4s-1.4,-0.3 -2.1,-0.5c-1.5,-0.5 -2.5,-1.1 -3.2,-1.9s-1,-1.8 -1,-3c0,-1.6 0.7,-3 2.2,-4s3.3,-1.5 5.6,-1.5c1.1,0 2.3,0.1 3.4,0.3s2.1,0.5 2.9,0.8l0,4l-0.5,0c-0.7,-0.6 -1.6,-1 -2.6,-1.4s-1.8,-0.7 -2.9,-0.7c-0.4,0 -0.7,0 -1.1,0.1s-0.7,0.1 -1.1,0.3c-0.3,0.1 -0.6,0.3 -0.8,0.5s-0.3,0.5 -0.3,0.8c0,0.5 0.2,0.8 0.5,1.1s1,0.5 2,0.7c0.6,0.1 1.3,0.3 1.8,0.4s1.2,0.3 1.9,0.5c1.3,0.4 2.3,1 3,1.8s1,1.7 1,2.9z" fill="#7F1416"/>
   <path id="svg_62" d="m118.4,33.34419l-4.2,0l0,-6.5c0,-0.5 0,-1.1 -0.1,-1.6s-0.1,-0.9 -0.3,-1.2c-0.2,-0.3 -0.4,-0.5 -0.7,-0.6s-0.7,-0.2 -1.3,-0.2c-0.4,0 -0.8,0.1 -1.2,0.2s-0.8,0.3 -1.3,0.6l0,9.3l-4.2,0l0,-18.2l4.2,0l0,6.5c0.7,-0.6 1.5,-1 2.2,-1.3s1.5,-0.5 2.3,-0.5c1.4,0 2.5,0.4 3.3,1.2c0.8,0.8 1.2,2.1 1.2,3.7l0,8.6l0.1,0z" fill="#7F1416"/>
   <path id="svg_63" d="m135.2,27.54419l-9.7,0c0.1,1 0.5,1.8 1.2,2.4s1.8,0.8 3.2,0.8c0.9,0 1.8,-0.2 2.6,-0.5s1.5,-0.7 2,-1l0.5,0l0,3.4c-1,0.4 -1.9,0.7 -2.7,0.8s-1.8,0.3 -2.8,0.3c-2.6,0 -4.7,-0.6 -6.1,-1.8s-2.1,-2.9 -2.1,-5.1c0,-2.2 0.7,-3.9 2,-5.2s3.2,-1.9 5.5,-1.9c2.1,0 3.8,0.5 4.8,1.6s1.6,2.6 1.6,4.7l0,1.5zm-4.2,-2.5c0,-0.9 -0.2,-1.5 -0.7,-2s-1.1,-0.7 -1.9,-0.7c-0.8,0 -1.5,0.2 -2,0.6s-0.8,1.1 -0.9,2l5.5,0l0,0.1z" fill="#7F1416"/>
   <path id="svg_64" d="m142.4,33.34419l-4.2,0l0,-18.2l4.2,0l0,18.2z" fill="#7F1416"/>
   <path id="svg_65" d="m154.8,33.24419c-0.5,0.1 -0.9,0.2 -1.4,0.3c-0.5,0.1 -1.1,0.1 -1.9,0.1c-1.6,0 -2.9,-0.3 -3.7,-1s-1.2,-1.8 -1.2,-3.4l0,-6.2l-1.7,0l0,-2.9l1.7,0l0,-3.8l4.2,0l0,3.8l3.9,0l0,2.9l-3.9,0l0,4.7c0,0.5 0,0.9 0,1.2s0.1,0.7 0.2,0.9c0.1,0.3 0.3,0.5 0.6,0.7c0.3,0.2 0.7,0.2 1.2,0.2c0.2,0 0.5,0 0.9,-0.1s0.6,-0.2 0.7,-0.3l0.4,0l0,2.9z" fill="#7F1416"/>
   <path id="svg_66" d="m170.3,27.54419l-9.7,0c0.1,1 0.5,1.8 1.2,2.4s1.8,0.8 3.2,0.8c0.9,0 1.8,-0.2 2.6,-0.5s1.5,-0.7 2,-1l0.5,0l0,3.4c-1,0.4 -1.9,0.7 -2.7,0.8s-1.8,0.3 -2.8,0.3c-2.6,0 -4.7,-0.6 -6.1,-1.8s-2.1,-2.9 -2.1,-5.1c0,-2.2 0.7,-3.9 2,-5.2s3.2,-1.9 5.5,-1.9c2.1,0 3.8,0.5 4.8,1.6s1.6,2.6 1.6,4.7l0,1.5zm-4.2,-2.5c0,-0.9 -0.2,-1.5 -0.7,-2s-1.1,-0.7 -1.9,-0.7c-0.8,0 -1.5,0.2 -2,0.6s-0.8,1.1 -0.9,2l5.5,0l0,0.1z" fill="#7F1416"/>
   <path id="svg_67" d="m182.8,24.14419l-0.4,0c-0.2,-0.1 -0.5,-0.1 -0.9,-0.1s-0.7,0 -1,0c-0.6,0 -1.1,0 -1.6,0.1s-1,0.2 -1.5,0.4l0,8.8l-4.2,0l0,-13.2l4.2,0l0,1.9c0.9,-0.8 1.7,-1.3 2.4,-1.6c0.7,-0.3 1.3,-0.4 1.9,-0.4c0.1,0 0.3,0 0.5,0c0.2,0 0.4,0 0.5,0l0,4.1l0.1,0z" fill="#7F1416"/>
   <path id="svg_68" d="m201.5,33.64419c-1.3,0 -2.5,-0.2 -3.6,-0.6s-2,-1 -2.8,-1.7s-1.4,-1.7 -1.8,-2.8s-0.7,-2.4 -0.7,-3.9c0,-1.4 0.2,-2.6 0.6,-3.8s1,-2.1 1.8,-2.9c0.8,-0.8 1.7,-1.4 2.8,-1.8s2.3,-0.6 3.7,-0.6c0.7,0 1.4,0 2,0.1s1.1,0.2 1.6,0.3c0.5,0.1 1,0.3 1.4,0.5s0.8,0.4 1.1,0.5l0,4.2l-0.5,0c-0.2,-0.2 -0.5,-0.4 -0.8,-0.7s-0.7,-0.5 -1.1,-0.8c-0.4,-0.2 -0.9,-0.5 -1.4,-0.6c-0.5,-0.2 -1,-0.3 -1.6,-0.3c-0.6,0 -1.2,0.1 -1.8,0.3s-1.1,0.5 -1.6,1c-0.5,0.4 -0.8,1 -1.1,1.8s-0.4,1.6 -0.4,2.7c0,1.1 0.2,2 0.5,2.7c0.3,0.7 0.7,1.3 1.2,1.7c0.5,0.4 1,0.7 1.6,0.9s1.2,0.3 1.7,0.3c0.5,0 1.1,-0.1 1.6,-0.2c0.5,-0.2 1,-0.4 1.5,-0.7c0.4,-0.2 0.7,-0.5 1.1,-0.7c0.3,-0.3 0.6,-0.5 0.8,-0.7l0.5,0l0,4.2c-0.4,0.2 -0.9,0.4 -1.3,0.6s-0.8,0.3 -1.3,0.4c-0.6,0.2 -1.1,0.3 -1.6,0.4s-1.2,0.2 -2.1,0.2z" fill="#7F1416"/>
   <path id="svg_69" d="m215,33.34419l-4.2,0l0,-18.2l4.2,0l0,18.2z" fill="#7F1416"/>
   <path id="svg_70" d="m232.1,33.34419l-4.2,0l0,-1.5c-0.8,0.6 -1.5,1 -2.1,1.4s-1.5,0.5 -2.4,0.5c-1.5,0 -2.6,-0.4 -3.4,-1.3s-1.2,-2.1 -1.2,-3.7l0,-8.6l4.2,0l0,6.6c0,0.7 0,1.2 0.1,1.7s0.1,0.8 0.3,1.1c0.1,0.3 0.4,0.5 0.7,0.6s0.7,0.2 1.3,0.2c0.4,0 0.8,-0.1 1.2,-0.2s0.9,-0.3 1.3,-0.6l0,-9.3l4.2,0l0,13.1z" fill="#7F1416"/>
   <path id="svg_71" d="m247.5,29.14419c0,1.4 -0.6,2.5 -1.8,3.3s-2.9,1.2 -5,1.2c-1.2,0 -2.2,-0.1 -3.2,-0.3s-1.7,-0.5 -2.3,-0.7l0,-3.5l0.4,0c0.2,0.1 0.5,0.3 0.7,0.5s0.7,0.4 1.2,0.6c0.4,0.2 0.9,0.3 1.5,0.5s1.1,0.2 1.8,0.2c0.8,0 1.4,-0.1 1.8,-0.3s0.6,-0.5 0.6,-0.8c0,-0.3 -0.1,-0.6 -0.4,-0.7s-0.7,-0.3 -1.3,-0.4c-0.3,-0.1 -0.7,-0.1 -1.3,-0.2s-1,-0.2 -1.5,-0.3c-1.2,-0.3 -2.1,-0.8 -2.7,-1.5s-0.9,-1.5 -0.9,-2.5c0,-1.3 0.6,-2.3 1.8,-3.2s2.8,-1.3 4.9,-1.3c1,0 1.9,0.1 2.8,0.3s1.6,0.4 2.1,0.6l0,3.3l-0.4,0c-0.6,-0.4 -1.3,-0.8 -2.1,-1s-1.6,-0.4 -2.4,-0.4c-0.7,0 -1.3,0.1 -1.7,0.3s-0.7,0.5 -0.7,0.8c0,0.3 0.1,0.6 0.3,0.7s0.7,0.3 1.5,0.5c0.4,0.1 0.9,0.2 1.4,0.3s1,0.2 1.5,0.3c1.1,0.3 1.9,0.7 2.5,1.4s0.9,1.4 0.9,2.3z" fill="#7F1416"/>
   <path id="svg_72" d="m258.7,33.24419c-0.5,0.1 -0.9,0.2 -1.4,0.3c-0.5,0.1 -1.1,0.1 -1.9,0.1c-1.6,0 -2.9,-0.3 -3.7,-1s-1.2,-1.8 -1.2,-3.4l0,-6.2l-1.7,0l0,-2.9l1.7,0l0,-3.8l4.2,0l0,3.8l3.9,0l0,2.9l-3.9,0l0,4.7c0,0.5 0,0.9 0,1.2s0.1,0.7 0.2,0.9c0.1,0.3 0.3,0.5 0.6,0.7c0.3,0.2 0.7,0.2 1.2,0.2c0.2,0 0.5,0 0.9,-0.1s0.6,-0.2 0.7,-0.3l0.4,0l0,2.9z" fill="#7F1416"/>
   <path id="svg_73" d="m274.2,27.54419l-9.7,0c0.1,1 0.5,1.8 1.2,2.4s1.8,0.8 3.2,0.8c0.9,0 1.8,-0.2 2.6,-0.5s1.5,-0.7 2,-1l0.5,0l0,3.4c-1,0.4 -1.9,0.7 -2.7,0.8s-1.8,0.3 -2.8,0.3c-2.6,0 -4.7,-0.6 -6.1,-1.8s-2.1,-2.9 -2.1,-5.1c0,-2.2 0.7,-3.9 2,-5.2s3.2,-1.9 5.5,-1.9c2.1,0 3.8,0.5 4.8,1.6s1.6,2.6 1.6,4.7l0,1.5zm-4.2,-2.5c0,-0.9 -0.2,-1.5 -0.7,-2s-1.1,-0.7 -1.9,-0.7c-0.8,0 -1.5,0.2 -2,0.6s-0.8,1.1 -0.9,2l5.5,0l0,0.1z" fill="#7F1416"/>
   <path id="svg_74" d="m286.7,24.14419l-0.4,0c-0.2,-0.1 -0.5,-0.1 -0.9,-0.1s-0.7,0 -1,0c-0.6,0 -1.1,0 -1.6,0.1s-1,0.2 -1.5,0.4l0,8.8l-4.2,0l0,-13.2l4.2,0l0,1.9c0.9,-0.8 1.7,-1.3 2.4,-1.6c0.7,-0.3 1.3,-0.4 1.9,-0.4c0.1,0 0.3,0 0.5,0c0.2,0 0.4,0 0.5,0l0,4.1l0.1,0z" fill="#7F1416"/>
  </g>
  <text font-weight="bold" xml:space="preserve" text-anchor="start" font-family="'Verdana'" font-size="26" stroke-width="0" id="svg_75" y="34.02325" x="293.45343" fill="#7F1416">Ukraine</text>
  <text xml:space="preserve" text-anchor="start" font-family="'Lexend'" font-size="24" id="svg_76" y="25.88372" x="314.96505" stroke-width="0" fill="#000000"/>
 </g>
</svg>