<?xml version="1.0" encoding="utf-8"?>
<svg viewBox="89.49 41.689 321.021 134.438" xmlns="http://www.w3.org/2000/svg">
  <defs>
    <radialGradient gradientUnits="userSpaceOnUse" cx="211.026" cy="251.222" r="160.51" id="gradient-1" gradientTransform="matrix(1, 0, 0, 1, 38.973972, -142.31395)">
      <stop offset="0" style="stop-color: rgb(0% 50.588% 100%)"/>
      <stop offset="1" style="stop-color: rgb(0% 29.958% 64.43%)"/>
    </radialGradient>
  </defs>
  <rect x="89.49" y="41.689" width="321.021" height="134.438" style="stroke: url('#gradient-1'); fill: rgb(24, 118, 210); paint-order: stroke markers;" transform="matrix(1, 0, 0, 1, 7.105427357601002e-15, 1.4210854715202004e-14)"/>
  <text style="fill: rgb(255, 255, 255); font-family: Arial, sans-serif; font-size: 19px; text-anchor: middle; white-space: pre;" transform="matrix(1, 0, 0, 1, 252.98810191434774, -22.542093612880905)"><tspan x="-4.617" y="100.081">SIDAR was developed with the</tspan><tspan x="-4.617" dy="1em">​</tspan><tspan>technical support of UNHCR</tspan></text>
  <path class="a" d="M 167.015 140.583 C 167.655 140.583 167.575 140.223 167.575 139.583 L 167.575 136.283 C 167.575 135.603 167.515 135.383 167.905 135.383 C 169.265 135.383 169.635 135.253 169.635 134.053 L 169.635 121.743 C 169.635 118.403 167.275 118.953 166.635 117.743 C 165.685 116.093 168.395 116.093 167.415 112.513 C 167.13 111.617 166.234 111.061 165.305 111.203 C 164.375 111.061 163.479 111.617 163.195 112.513 C 162.195 116.093 164.925 116.093 163.975 117.743 C 163.305 118.963 160.975 118.413 160.975 121.743 L 160.975 134.013 C 160.975 135.223 161.335 135.343 162.705 135.343 C 163.085 135.343 163.025 135.563 163.025 136.243 L 163.025 139.543 C 163.025 140.223 162.945 140.543 163.585 140.543 L 167.015 140.543" style="fill: rgb(255, 255, 255);" transform="matrix(1, 0, 0, 1, 7.105427357601002e-15, 1.4210854715202004e-14)"/>
  <path class="a" d="M 156.305 113.973 C 155.095 115.253 153.195 118.253 154.435 120.743 C 156.965 121.743 156.775 112.743 159.925 112.883 C 161.485 114.323 159.455 118.573 158.835 120.433 C 158.055 122.733 157.435 127.563 155.955 129.893 C 154.715 131.843 155.645 137.953 155.255 140.053 C 154.255 141.053 151.365 140.363 150.155 140.163 C 150.155 137.753 149.845 135.843 149.455 131.993 C 149.455 131.213 148.595 119.303 149.255 117.863 C 150.615 114.863 158.055 109.143 159.065 108.053 C 160.075 106.963 163.115 103.853 164.325 103.853 C 165.175 104.443 164.675 105.803 164.485 106.343 C 163.275 109.343 158.065 112.343 156.305 113.973" style="fill: rgb(255, 255, 255);" transform="matrix(1, 0, 0, 1, 7.105427357601002e-15, 1.4210854715202004e-14)"/>
  <path class="a" d="M 174.445 113.973 C 175.605 115.253 177.525 118.253 176.315 120.743 C 173.745 121.743 173.945 112.743 170.785 112.883 C 169.275 114.323 171.295 118.573 171.915 120.433 C 172.695 122.733 173.315 127.563 174.795 129.893 C 176.005 131.843 175.105 137.953 175.455 140.053 C 176.545 141.053 179.345 140.363 180.595 140.163 C 180.677 137.431 180.898 134.704 181.255 131.993 C 181.335 131.213 182.155 119.303 181.485 117.863 C 180.125 114.863 172.685 109.143 171.675 108.053 C 170.665 106.963 167.625 103.853 166.425 103.853 C 165.535 104.443 166.075 105.803 166.275 106.343 C 167.485 109.343 172.695 112.343 174.455 113.973" style="fill: rgb(255, 255, 255);" transform="matrix(1, 0, 0, 1, 7.105427357601002e-15, 1.4210854715202004e-14)"/>
  <path class="a" d="M 145.495 109.933 C 144.835 110.563 143.345 110.983 142.335 112.343 C 141.945 111.603 142.955 109.813 144.165 108.763 C 145.123 107.944 146.182 107.248 147.315 106.693 C 147.705 107.593 146.315 108.953 145.485 109.933" style="fill: rgb(255, 255, 255);" transform="matrix(1, 0, 0, 1, 7.105427357601002e-15, 1.4210854715202004e-14)"/>
  <path class="a" d="M 143.425 114.853 C 142.295 115.853 141.085 116.333 139.525 118.243 C 138.982 116.39 138.913 114.43 139.325 112.543 C 139.875 110.753 140.765 108.763 142.325 108.143 C 141.821 109.539 141.505 110.995 141.385 112.473 C 140.725 115.083 140.335 115.163 140.485 115.473 C 140.635 115.473 141.485 114.103 142.555 113.053 C 143.775 111.853 145.335 111.533 146.345 110.793 C 145.633 112.299 144.642 113.657 143.425 114.793" style="fill: rgb(255, 255, 255);" transform="matrix(1, 0, 0, 1, 7.105427357601002e-15, 1.4210854715202004e-14)"/>
  <path class="a" d="M 137.925 125.613 C 136.728 123.475 136.107 121.063 136.125 118.613 C 136.205 117.013 136.985 113.313 138.125 112.763 C 137.775 116.113 138.675 116.423 138.315 119.193 C 138.315 119.353 137.925 122.193 137.925 122.393 C 138.395 122.313 137.925 119.743 143.305 116.033 C 142.145 118.033 142.685 118.683 140.575 121.373 C 139.321 122.528 138.396 123.995 137.895 125.623" style="fill: rgb(255, 255, 255);" transform="matrix(1, 0, 0, 1, 7.105427357601002e-15, 1.4210854715202004e-14)"/>
  <path class="a" d="M 140.075 128.193 C 139.426 129.162 139.012 130.267 138.865 131.423 C 136.165 129.853 133.125 123.673 134.255 120.583 C 134.955 122.923 135.935 123.423 136.635 125.383 C 137.845 128.313 137.635 129.203 138.425 129.863 C 138.367 128.272 138.661 126.688 139.285 125.223 C 139.839 124.143 140.463 123.101 141.155 122.103 C 141.735 124.253 141.305 126.003 140.065 128.193" style="fill: rgb(255, 255, 255);" transform="matrix(1, 0, 0, 1, 7.105427357601002e-15, 1.4210854715202004e-14)"/>
  <path class="a" d="M 142.495 133.493 C 142.418 135.234 142.208 136.965 141.865 138.673 C 137.225 137.163 134.805 131.853 134.805 129.243 C 136.215 132.443 138.275 132.403 141.015 136.923 C 141.245 135.203 140.545 136.493 140.465 133.253 C 140.545 129.863 141.245 129.743 141.355 127.633 C 142.215 128.563 142.525 132.313 142.525 133.483" style="fill: rgb(255, 255, 255);" transform="matrix(1, 0, 0, 1, 7.105427357601002e-15, 1.4210854715202004e-14)"/>
  <path class="a" d="M 146.345 140.243 C 146.695 141.993 146.855 144.063 147.125 145.593 C 144.475 144.593 143.805 145.363 140.655 143.363 C 139.205 142.583 136.655 139.313 136.795 136.963 C 139.915 140.433 140.465 140.043 142.015 141.333 C 143.415 142.463 144.545 144.143 145.565 143.913 C 145.635 142.973 143.265 140.913 143.565 135.103 C 144.806 136.635 145.758 138.38 146.375 140.253" style="fill: rgb(255, 255, 255);" transform="matrix(1, 0, 0, 1, 7.105427357601002e-15, 1.4210854715202004e-14)"/>
  <path class="a" d="M 151.615 144.613 C 152.435 145.783 152.245 146.283 154.345 148.703 C 152.559 149.29 150.709 149.656 148.835 149.793 C 147.515 149.793 142.835 148.543 141.275 145.343 C 144.015 146.793 144.015 146.443 147.595 147.223 C 150.175 147.813 152.005 148.623 152.705 148.553 C 152.545 148.203 150.565 147.383 149.195 145.663 C 147.825 143.943 148.145 141.763 146.925 140.243 C 147.745 140.013 150.925 143.753 151.605 144.613" style="fill: rgb(255, 255, 255);" transform="matrix(1, 0, 0, 1, 7.105427357601002e-15, 1.4210854715202004e-14)"/>
  <path class="a" d="M 185.015 109.933 C 185.635 110.563 187.165 110.983 188.135 112.343 C 188.565 111.603 187.515 109.813 186.305 108.763 C 185.358 107.923 184.293 107.226 183.145 106.693 C 182.755 107.593 184.145 108.953 185.015 109.933" style="fill: rgb(255, 255, 255);" transform="matrix(1, 0, 0, 1, 7.105427357601002e-15, 1.4210854715202004e-14)"/>
  <path class="a" d="M 187.105 114.853 C 188.195 115.853 189.405 116.333 190.965 118.243 C 191.507 116.39 191.576 114.43 191.165 112.543 C 190.655 110.753 189.715 108.763 188.165 108.143 C 188.686 109.533 189.003 110.992 189.105 112.473 C 189.765 115.083 190.155 115.163 190.005 115.473 C 189.855 115.473 189.005 114.103 187.935 113.053 C 186.755 111.853 185.185 111.533 184.145 110.793 C 184.893 112.298 185.91 113.653 187.145 114.793" style="fill: rgb(255, 255, 255);" transform="matrix(1, 0, 0, 1, 7.105427357601002e-15, 1.4210854715202004e-14)"/>
  <path class="a" d="M 192.565 125.613 C 193.773 123.481 194.391 121.064 194.355 118.613 C 194.275 117.013 193.495 113.313 192.355 112.763 C 192.665 116.113 191.765 116.423 192.155 119.193 C 192.155 119.353 192.505 122.193 192.505 122.393 C 192.075 122.313 192.505 119.743 187.165 116.033 C 188.295 118.033 187.745 118.683 189.855 121.373 C 191.128 122.513 192.059 123.985 192.545 125.623" style="fill: rgb(255, 255, 255);" transform="matrix(1, 0, 0, 1, 7.105427357601002e-15, 1.4210854715202004e-14)"/>
  <path class="a" d="M 190.455 128.193 C 191.079 129.17 191.478 130.273 191.625 131.423 C 194.315 129.863 197.395 123.663 196.225 120.583 C 195.565 122.923 194.545 123.423 193.885 125.383 C 192.635 128.313 192.825 129.203 192.095 129.863 C 192.134 128.27 191.827 126.686 191.195 125.223 C 190.655 124.135 190.03 123.092 189.325 122.103 C 188.799 124.201 189.212 126.424 190.455 128.193" style="fill: rgb(255, 255, 255);" transform="matrix(1, 0, 0, 1, 7.105427357601002e-15, 1.4210854715202004e-14)"/>
  <path class="a" d="M 188.015 133.493 C 188.096 135.235 188.317 136.967 188.675 138.673 C 193.275 137.153 195.735 131.853 195.735 129.233 C 194.285 132.433 192.265 132.393 189.535 136.913 C 189.305 135.193 189.995 136.483 190.075 133.243 C 189.995 129.853 189.295 129.733 189.175 127.623 C 188.325 128.553 188.005 132.303 188.005 133.473" style="fill: rgb(255, 255, 255);" transform="matrix(1, 0, 0, 1, 7.105427357601002e-15, 1.4210854715202004e-14)"/>
  <path class="a" d="M 184.145 140.243 C 183.795 141.993 183.675 144.063 183.405 145.593 C 186.015 144.593 186.685 145.363 189.835 143.363 C 191.275 142.583 193.895 139.313 193.735 136.963 C 190.615 140.433 190.035 140.053 188.555 141.333 C 187.145 142.463 185.975 144.143 184.965 143.913 C 184.885 142.973 187.265 140.913 186.965 135.103 C 185.693 136.622 184.726 138.37 184.115 140.253" style="fill: rgb(255, 255, 255);" transform="matrix(1, 0, 0, 1, 7.105427357601002e-15, 1.4210854715202004e-14)"/>
  <path class="a" d="M 178.875 144.613 C 178.166 146.101 177.246 147.478 176.145 148.703 C 177.94 149.289 179.801 149.655 181.685 149.793 C 182.975 149.793 187.685 148.543 189.205 145.343 C 186.525 146.783 186.475 146.433 182.895 147.213 C 180.315 147.803 178.525 148.613 177.785 148.543 C 177.935 148.193 179.965 147.373 181.295 145.653 C 182.625 143.933 182.345 141.753 183.595 140.233 C 182.745 140.003 179.545 143.743 178.875 144.603" style="fill: rgb(255, 255, 255);" transform="matrix(1, 0, 0, 1, 7.105427357601002e-15, 1.4210854715202004e-14)"/>
  <path class="a" d="M 158.595 155.603 L 157.815 155.213 C 161.247 151.443 166.181 149.397 171.275 149.633 C 179.775 150.103 179.195 152.093 183.755 151.773 C 184.265 151.773 183.365 152.403 183.365 152.403 C 180.117 153.425 176.627 153.369 173.415 152.243 C 167.955 150.373 164.415 149.243 158.595 155.593" style="fill: rgb(255, 255, 255);" transform="matrix(1, 0, 0, 1, 7.105427357601002e-15, 1.4210854715202004e-14)"/>
  <path class="a" d="M 172.015 155.603 L 172.805 155.213 C 169.397 151.45 164.486 149.408 159.415 149.643 C 150.875 150.113 151.415 152.103 146.895 151.783 C 146.385 151.783 147.285 152.413 147.285 152.413 C 150.528 153.434 154.015 153.378 157.225 152.253 C 162.725 150.383 166.225 149.253 172.045 155.603" style="fill: rgb(255, 255, 255);" transform="matrix(1, 0, 0, 1, 7.105427357601002e-15, 1.4210854715202004e-14)"/>
  <path class="a" d="M 232.325 129.303 C 232.325 137.453 227.925 141.363 218.955 141.363 C 209.985 141.363 205.535 137.453 205.535 129.303 L 205.535 111.303 L 214.585 111.303 L 214.585 127.303 C 214.585 130.303 214.585 134.053 218.985 134.053 C 223.385 134.053 223.265 130.303 223.265 127.303 L 223.265 111.303 L 232.315 111.303 L 232.315 129.303" style="fill: rgb(255, 255, 255);" transform="matrix(1, 0, 0, 1, 7.105427357601002e-15, 1.4210854715202004e-14)"/>
  <polygon class="a" points="237.754 111.283 247.016 111.283 255.574 127.003 255.655 127.003 255.655 111.283 264.205 111.283 264.205 140.663 255.405 140.663 246.394 124.613 246.316 124.613 246.316 140.663 237.754 140.663 237.754 111.283" style="fill: rgb(255, 255, 255);" transform="matrix(1, 0, 0, 1, 7.105427357601002e-15, 1.4210854715202004e-14)"/>
  <polygon class="a" points="269.766 111.283 278.824 111.283 278.824 121.493 287.294 121.493 287.294 111.283 296.354 111.283 296.354 140.663 287.294 140.663 287.294 129.023 278.824 129.023 278.824 140.663 269.766 140.663 269.766 111.283" style="fill: rgb(255, 255, 255);" transform="matrix(1, 0, 0, 1, 7.105427357601002e-15, 1.4210854715202004e-14)"/>
  <path class="a" d="M 319.515 122.233 C 319.311 119.778 317.248 117.894 314.785 117.913 C 310.545 117.913 309.195 122.023 309.195 125.973 C 309.195 129.923 310.555 134.043 314.785 134.043 C 317.785 134.043 319.025 131.903 319.565 129.143 L 328.455 129.143 C 328.455 135.063 323.645 141.363 315.045 141.363 C 305.545 141.363 300.145 134.653 300.145 125.973 C 300.145 116.713 305.985 110.583 315.045 110.583 C 323.105 110.583 327.555 114.863 328.335 122.233 L 319.535 122.233" style="fill: rgb(255, 255, 255);" transform="matrix(1, 0, 0, 1, 7.105427357601002e-15, 1.4210854715202004e-14)"/>
  <path class="a" d="M 341.285 118.273 L 345.525 118.273 C 348.985 118.273 350.015 119.343 350.015 121.193 C 350.015 123.823 347.705 124.113 346.015 124.113 L 341.285 124.113 L 341.285 118.273 Z M 332.235 140.663 L 341.285 140.663 L 341.285 130.423 L 346.105 130.423 C 349.685 130.423 349.925 133.343 350.175 136.143 C 350.255 137.673 350.503 139.188 350.915 140.663 L 360.015 140.663 C 359.185 139.303 359.155 135.813 359.015 134.373 C 358.685 130.713 357.165 127.993 354.695 127.043 C 357.695 125.933 359.095 122.723 359.095 119.683 C 359.095 114.123 354.645 111.293 349.505 111.293 L 332.225 111.293 L 332.225 140.663" style="fill: rgb(255, 255, 255);" transform="matrix(1, 0, 0, 1, 7.105427357601002e-15, 1.4210854715202004e-14)"/>
  <polygon class="a" points="208.475 147.413 205.525 147.413 205.525 145.593 213.596 145.593 213.596 147.413 210.644 147.413 210.644 155.443 208.475 155.443 208.475 147.413" style="fill: rgb(255, 255, 255);" transform="matrix(1, 0, 0, 1, 7.105427357601002e-15, 1.4210854715202004e-14)"/>
  <path class="a" d="M 214.265 145.593 L 216.265 145.593 L 216.265 149.303 C 216.714 148.584 217.496 148.14 218.345 148.123 C 220.425 148.123 220.955 149.293 220.955 151.063 L 220.955 155.443 L 219.015 155.443 L 219.015 151.443 C 219.015 150.273 218.675 149.693 217.765 149.693 C 216.705 149.693 216.245 150.283 216.245 151.693 L 216.245 155.433 L 214.245 155.433 L 214.245 145.593" style="fill: rgb(255, 255, 255);" transform="matrix(1, 0, 0, 1, 7.105427357601002e-15, 1.4210854715202004e-14)"/>
  <path class="a" d="M 223.755 152.353 C 223.815 153.593 224.415 154.163 225.505 154.163 C 226.149 154.183 226.743 153.818 227.015 153.233 L 228.735 153.233 C 228.347 154.735 226.941 155.745 225.395 155.633 C 223.301 155.713 221.612 153.94 221.795 151.853 C 221.69 149.782 223.361 148.056 225.435 148.093 C 227.865 148.093 229.035 150.093 228.895 152.323 L 223.755 152.353 Z M 226.935 151.113 C 226.755 150.113 226.325 149.593 225.375 149.593 C 224.497 149.542 223.754 150.234 223.745 151.113 L 226.925 151.113" style="fill: rgb(255, 255, 255);" transform="matrix(1, 0, 0, 1, 7.105427357601002e-15, 1.4210854715202004e-14)"/>
  <path class="a" d="M 241.615 151.723 C 241.615 154.383 240.045 155.723 237.415 155.723 C 234.785 155.723 233.225 154.443 233.225 151.723 L 233.225 145.593 L 235.385 145.593 L 235.385 151.713 C 235.385 152.793 235.665 153.853 237.385 153.853 C 238.925 153.853 239.385 153.173 239.385 151.713 L 239.385 145.593 L 241.545 145.593 L 241.545 151.713" style="fill: rgb(255, 255, 255);" transform="matrix(1, 0, 0, 1, 7.105427357601002e-15, 1.4210854715202004e-14)"/>
  <polygon class="a" points="243.055 145.593 245.206 145.593 249.316 152.203 249.346 152.203 249.346 145.593 251.376 145.593 251.376 155.443 249.206 155.443 245.114 148.853 245.085 148.853 245.085 155.443 243.055 155.443 243.055 145.593" style="fill: rgb(255, 255, 255);" transform="matrix(1, 0, 0, 1, 7.105427357601002e-15, 1.4210854715202004e-14)"/>
  <path class="a" d="M 258.255 147.283 L 260.625 147.283 C 261.625 147.283 262.115 147.693 262.115 148.643 C 262.115 149.593 261.585 150.053 260.625 150.053 L 258.255 150.053 L 258.255 147.283 Z M 256.095 155.443 L 258.255 155.443 L 258.255 151.593 L 260.415 151.593 C 261.505 151.593 261.905 152.053 262.055 153.083 C 262.081 153.88 262.195 154.671 262.395 155.443 L 264.555 155.443 C 264.247 154.707 264.107 153.911 264.145 153.113 C 264.075 152.113 263.775 151.113 262.715 150.813 C 263.729 150.432 264.366 149.423 264.275 148.343 C 264.29 146.771 262.963 145.518 261.395 145.623 L 256.085 145.623 L 256.085 155.463" style="fill: rgb(255, 255, 255);" transform="matrix(1, 0, 0, 1, 7.105427357601002e-15, 1.4210854715202004e-14)"/>
  <path class="a" d="M 267.205 151.113 C 267.214 150.234 267.957 149.542 268.835 149.593 C 269.835 149.593 270.215 150.113 270.395 151.113 L 267.205 151.113 Z M 272.345 152.353 C 272.485 150.163 271.345 148.123 268.885 148.123 C 266.821 148.081 265.152 149.792 265.245 151.853 C 265.079 153.945 266.789 155.706 268.885 155.603 C 270.431 155.715 271.837 154.705 272.225 153.203 L 270.505 153.203 C 270.225 153.794 269.617 154.158 268.965 154.123 C 267.875 154.123 267.265 153.563 267.215 152.313 L 272.355 152.313" style="fill: rgb(255, 255, 255);" transform="matrix(1, 0, 0, 1, 7.105427357601002e-15, 1.4210854715202004e-14)"/>
  <path class="a" d="M 273.635 149.623 L 272.465 149.623 L 272.465 148.313 L 273.635 148.313 L 273.635 147.763 C 273.571 146.454 274.716 145.41 276.015 145.593 C 276.355 145.593 276.715 145.593 277.015 145.653 L 277.015 147.113 C 276.775 147.099 276.534 147.099 276.295 147.113 C 275.775 147.113 275.555 147.333 275.555 147.923 L 275.555 148.353 L 276.905 148.353 L 276.905 149.663 L 275.555 149.663 L 275.555 155.483 L 273.555 155.483 L 273.555 149.623" style="fill: rgb(255, 255, 255);" transform="matrix(1, 0, 0, 1, 7.105427357601002e-15, 1.4210854715202004e-14)"/>
  <path class="a" d="M 284.235 155.443 L 282.375 155.443 L 282.375 154.443 C 281.903 155.191 281.078 155.641 280.195 155.633 C 278.115 155.633 277.585 154.463 277.585 152.693 L 277.585 148.313 L 279.585 148.313 L 279.585 152.313 C 279.585 153.483 279.925 154.063 280.835 154.063 C 281.895 154.063 282.355 153.473 282.355 152.063 L 282.355 148.313 L 284.355 148.313 L 284.355 155.443" style="fill: rgb(255, 255, 255);" transform="matrix(1, 0, 0, 1, 7.105427357601002e-15, 1.4210854715202004e-14)"/>
  <path class="a" d="M 288.745 153.763 C 287.545 153.763 287.165 152.643 287.165 151.623 C 287.165 150.603 287.645 149.623 288.745 149.623 C 290.015 149.623 290.415 150.623 290.415 151.813 C 290.564 152.844 289.785 153.776 288.745 153.813 M 292.275 148.363 L 290.415 148.363 L 290.415 149.363 C 289.993 148.6 289.164 148.154 288.295 148.223 C 286.295 148.223 285.235 149.903 285.235 151.753 C 285.235 153.603 286.145 155.343 288.235 155.343 C 289.093 155.384 289.908 154.965 290.375 154.243 L 290.375 155.183 C 290.375 156.183 289.895 156.943 288.805 156.943 C 288.135 157.029 287.507 156.599 287.345 155.943 L 285.405 155.943 C 285.495 157.573 287.145 158.233 288.545 158.233 C 291.825 158.233 292.235 156.233 292.235 155.073 L 292.235 148.313" style="fill: rgb(255, 255, 255);" transform="matrix(1, 0, 0, 1, 7.105427357601002e-15, 1.4210854715202004e-14)"/>
  <path class="a" d="M 295.215 151.113 C 295.224 150.234 295.967 149.542 296.845 149.593 C 297.845 149.593 298.225 150.113 298.405 151.113 L 295.215 151.113 Z M 300.355 152.353 C 300.495 150.163 299.355 148.123 296.895 148.123 C 294.831 148.081 293.162 149.792 293.255 151.853 C 293.089 153.945 294.799 155.706 296.895 155.603 C 298.441 155.715 299.847 154.705 300.235 153.203 L 298.515 153.203 C 298.235 153.794 297.627 154.158 296.975 154.123 C 295.885 154.123 295.275 153.563 295.225 152.313 L 300.365 152.313" style="fill: rgb(255, 255, 255);" transform="matrix(1, 0, 0, 1, 7.105427357601002e-15, 1.4210854715202004e-14)"/>
  <path class="a" d="M 302.875 151.113 C 302.884 150.234 303.627 149.542 304.505 149.593 C 305.505 149.593 305.885 150.113 306.065 151.113 L 302.875 151.113 Z M 308.015 152.353 C 308.155 150.163 307.015 148.123 304.555 148.123 C 302.491 148.081 300.822 149.792 300.915 151.853 C 300.749 153.945 302.459 155.706 304.555 155.603 C 306.101 155.715 307.507 154.705 307.895 153.203 L 306.175 153.203 C 305.894 153.798 305.281 154.162 304.625 154.123 C 303.535 154.123 302.935 153.563 302.875 152.313 L 308.015 152.313" style="fill: rgb(255, 255, 255);" transform="matrix(1, 0, 0, 1, 7.105427357601002e-15, 1.4210854715202004e-14)"/>
  <path class="a" d="M 317.015 148.023 L 318.255 151.633 L 315.705 151.633 L 317.015 148.023 Z M 312.205 155.443 L 314.395 155.443 L 315.165 153.253 L 318.845 153.253 L 319.585 155.443 L 321.835 155.443 L 318.155 145.603 L 315.935 145.603 L 312.205 155.443 Z" style="fill: rgb(255, 255, 255);" transform="matrix(1, 0, 0, 1, 7.105427357601002e-15, 1.4210854715202004e-14)"/>
  <path class="a" d="M 325.475 153.763 C 324.275 153.763 323.885 152.643 323.885 151.623 C 323.885 150.603 324.365 149.623 325.475 149.623 C 326.745 149.623 327.145 150.623 327.145 151.813 C 327.287 152.842 326.512 153.77 325.475 153.813 M 329.015 148.313 L 327.155 148.313 L 327.155 149.313 C 326.744 148.524 325.902 148.055 325.015 148.123 C 323.015 148.123 321.955 149.803 321.955 151.653 C 321.955 153.503 322.865 155.243 324.955 155.243 C 325.813 155.284 326.628 154.865 327.095 154.143 L 327.095 155.083 C 327.095 156.083 326.615 156.843 325.525 156.843 C 324.855 156.929 324.227 156.499 324.065 155.843 L 322.125 155.843 C 322.225 157.473 323.865 158.133 325.265 158.133 C 328.545 158.133 328.965 156.133 328.965 154.973 L 328.965 148.313" style="fill: rgb(255, 255, 255);" transform="matrix(1, 0, 0, 1, 7.105427357601002e-15, 1.4210854715202004e-14)"/>
  <path class="a" d="M 331.935 151.113 C 331.944 150.234 332.687 149.542 333.565 149.593 C 334.565 149.593 334.945 150.113 335.125 151.113 L 331.935 151.113 Z M 337.075 152.353 C 337.215 150.163 336.075 148.123 333.615 148.123 C 331.567 148.104 329.923 149.808 330.015 151.853 C 329.849 153.945 331.559 155.706 333.655 155.603 C 335.199 155.714 336.601 154.704 336.985 153.203 L 335.265 153.203 C 334.984 153.798 334.371 154.162 333.715 154.123 C 332.625 154.123 332.015 153.563 331.965 152.313 L 337.105 152.313" style="fill: rgb(255, 255, 255);" transform="matrix(1, 0, 0, 1, 7.105427357601002e-15, 1.4210854715202004e-14)"/>
  <path class="a" d="M 337.935 148.313 L 339.795 148.313 L 339.795 149.313 C 340.272 148.552 341.116 148.099 342.015 148.123 C 344.095 148.123 344.625 149.293 344.625 151.063 L 344.625 155.443 L 342.625 155.443 L 342.625 151.443 C 342.625 150.273 342.285 149.693 341.375 149.693 C 340.315 149.693 339.855 150.283 339.855 151.693 L 339.855 155.433 L 337.855 155.433 L 337.855 148.313" style="fill: rgb(255, 255, 255);" transform="matrix(1, 0, 0, 1, 7.105427357601002e-15, 1.4210854715202004e-14)"/>
  <path class="a" d="M 350.665 150.853 C 350.612 150.109 349.957 149.554 349.215 149.623 C 347.965 149.623 347.545 150.893 347.545 151.933 C 347.545 152.973 347.945 154.183 349.175 154.183 C 350.005 154.211 350.702 153.564 350.735 152.733 L 352.625 152.733 C 352.481 154.486 350.947 155.791 349.195 155.653 C 347.152 155.739 345.48 154.045 345.595 152.003 C 345.394 149.882 347.105 148.067 349.235 148.143 C 350.915 148.143 352.465 149.023 352.585 150.843 L 350.665 150.843" style="fill: rgb(255, 255, 255);" transform="matrix(1, 0, 0, 1, 7.105427357601002e-15, 1.4210854715202004e-14)"/>
  <path class="a" d="M 357.015 156.333 C 356.711 157.404 355.668 158.09 354.565 157.943 C 354.164 157.94 353.763 157.917 353.365 157.873 L 353.365 156.273 C 353.746 156.319 354.13 156.343 354.515 156.343 C 355.139 156.245 355.481 155.562 355.185 155.003 L 352.675 148.313 L 354.775 148.313 L 356.385 153.193 L 357.945 148.313 L 359.945 148.313 L 356.945 156.313" style="fill: rgb(255, 255, 255);" transform="matrix(1, 0, 0, 1, 7.105427357601002e-15, 1.4210854715202004e-14)"/>
</svg>